<svg id="Layer_1" data-name="Layer 1" xmlns="http://www.w3.org/2000/svg" viewBox="0 0 577.45 370.19"><defs><style>.cls-1,.cls-3{fill:#fff;}.cls-1,.cls-2{stroke:#000;stroke-miterlimit:10;}.cls-1{stroke-width:14px;}.cls-2{fill:none;stroke-width:4.55px;}</style></defs><title>Logos</title><path d="M50.36,110.29s4.25,1.59,10,7.37c7.18,7.18,8.27,10.86,8.27,10.86l-27,5.92"/><path class="cls-1" d="M302.46,47a52.28,52.28,0,0,0-52.28,52.28,57.5,57.5,0,0,0,2.35,15.55c4.91,18.38,11,21.65,12.07,35.46,0.42,5.22-1.19,9.22-2.46,13.57-3.25,11.13-8.46,18-11.24,22.31-5.24,8.11-7.33,17.83-11.49,37.28C234.79,245,232,281.89,235,328a6.67,6.67,0,0,0,6.66,6.23H363.26a6.67,6.67,0,0,0,6.66-6.23c3-46.11.21-83-4.42-104.53C361.33,204,359.25,194.31,354,186.2c-2.78-4.31-8-11.18-11.24-22.31-1.27-4.35-2.88-8.35-2.46-13.57,1.12-13.81,7.16-17.08,12.07-35.46a57.5,57.5,0,0,0,2.35-15.55A52.28,52.28,0,0,0,302.46,47"/><path class="cls-1" d="M473.12,47a52.28,52.28,0,0,0-52.28,52.28,57.5,57.5,0,0,0,2.35,15.55c4.91,18.38,11,21.65,12.07,35.46,0.42,5.22-1.19,9.22-2.46,13.57-3.25,11.13-8.46,18-11.24,22.31-5.24,8.11-7.33,17.83-11.49,37.28-4.62,21.57-7.43,58.41-4.42,104.53a6.67,6.67,0,0,0,6.66,6.23H533.93a6.67,6.67,0,0,0,6.66-6.23c3-46.11.21-83-4.42-104.53C532,204,529.91,194.31,524.67,186.2c-2.78-4.31-8-11.18-11.24-22.31-1.27-4.35-2.88-8.35-2.46-13.57,1.12-13.81,7.16-17.08,12.07-35.46a57.5,57.5,0,0,0,2.35-15.55A52.28,52.28,0,0,0,473.12,47"/><path class="cls-1" d="M380.06,19.51a59,59,0,0,0-59,59c0,4.23.46,9.36,2.66,17.56,5.55,20.76,12.37,24.45,13.64,40,0.48,5.89-1.34,10.42-2.78,15.33-3.67,12.58-9.55,20.33-12.69,25.2-5.92,9.16-8.27,20.14-13,42.1-5.22,24.36-8.39,66-5,118.05a7.54,7.54,0,0,0,7.52,7H448.74a7.54,7.54,0,0,0,7.52-7c3.4-52.08.23-93.69-5-118.05-4.71-22-7.06-32.94-13-42.1-3.14-4.86-9-12.62-12.69-25.2-1.44-4.91-3.26-9.44-2.78-15.33,1.27-15.59,8.09-19.29,13.64-40,2.19-8.21,2.66-13.34,2.66-17.56a59,59,0,0,0-59-59"/><rect class="cls-2" x="11.53" y="13.52" width="170.63" height="138.18"/><line class="cls-3" x1="51.7" y1="127.43" x2="129.26" y2="49.87"/><path d="M124.6,36.15l9.31-9.31a6,6,0,0,1,8.5,0l9.88,9.88a6,6,0,0,1,0,8.5L143,54.53"/><path d="M70.89,126.62s2-2-7.17-11.21-11.21-7.17-11.21-7.17l67.56-67.56,18.38,18.38Z"/><circle cx="322.36" cy="88.65" r="6.36"/><circle cx="282.55" cy="88.65" r="6.36"/><circle cx="493.02" cy="88.65" r="6.36"/><circle cx="453.22" cy="88.65" r="6.36"/><circle cx="399.97" cy="72.58" r="6.36"/><circle cx="360.16" cy="72.58" r="6.36"/></svg>