<svg id="Layer_1" data-name="Layer 1" xmlns="http://www.w3.org/2000/svg" viewBox="0 0 577.45 370.19"><defs><style>.cls-1{fill:#020202;}.cls-2{fill:none;stroke:#020202;stroke-miterlimit:10;stroke-width:19.54px;}</style></defs><title>Logos</title><path class="cls-1" d="M286.77,45.76C219.24,43.89,154.37,74.45,117.85,110c-21.48,20.9-45.42,48.51-45.42,74.9s23.94,54.95,45.42,75.85c36.52,35.52,101.39,65.61,168.93,63.71,96.7-2.67,187.74-63,207.91-139.55C474.51,109.81,383.47,48.43,286.77,45.76Zm-3.22,238.78c-60.7,1.69-96.7-24.75-132.43-56.05-17.31-15.15-15.86-17.76-34.6-44.15,18.74-27.9,17.29-27.16,34.6-42.3,35.73-31.3,71.73-58.19,132.43-56.48,82.13,2.24,125.51,35.68,167.18,99.31C409.07,248.21,365.68,282.28,283.55,284.55Z"/><circle class="cls-2" cx="283.56" cy="182.28" r="45.48"/></svg>