<svg id="Layer_1" data-name="Layer 1" xmlns="http://www.w3.org/2000/svg" viewBox="0 0 577.45 370.19"><defs><style>.cls-1{fill:#020202;}.cls-2{fill:none;stroke:#020202;stroke-miterlimit:10;stroke-width:34.39px;}</style></defs><title>Logos</title><path class="cls-1" d="M286.35,64c-58.68-1.63-115,24.92-146.77,55.79C120.91,138,100.11,162,100.11,184.9s20.8,47.74,39.46,65.9c31.74,30.86,88.1,57,146.77,55.35,84-2.32,163.12-54.76,180.64-121.25C449.47,119.69,370.37,66.35,286.35,64Zm-2.8,207.47c-52.74,1.47-84-21.51-115.06-48.7-15-13.16-13.78-15.43-30.06-38.36,16.28-24.24,15-23.6,30.06-36.76,31-27.2,62.32-50.56,115.06-49.07,71.36,1.95,109.06,31,145.26,86.29C392.61,239.93,354.91,269.53,283.55,271.51Z"/><circle class="cls-2" cx="283.56" cy="182.28" r="42.93"/></svg>